<svg width="169" height="53" viewBox="0 0 169 53" fill="none" xmlns="http://www.w3.org/2000/svg">
<path d="M1 5.91783C4.53439 2.20672 13.6178 -2.98884 21.6762 5.91783C29.7346 14.8245 39.5249 9.62894 43.4127 5.91783C46.7704 2.38344 55.6064 -2.5647 64.0889 5.91783C72.5714 14.4004 80.7005 9.45222 83.7048 5.91783C87.5926 2.38344 97.701 -2.5647 107.032 5.91783C116.363 14.4004 123.997 9.45222 126.648 5.91783C130.005 2.38344 138.841 -2.5647 147.324 5.91783C155.806 14.4004 164.642 9.45222 168 5.91783" stroke="white" stroke-width="1.06032"/>
<path d="M1 19.702C4.53439 15.9909 13.6178 10.7953 21.6762 19.702C29.7346 28.6087 39.5249 23.4131 43.4127 19.702C46.7704 16.1676 55.6064 11.2195 64.0889 19.702C72.5714 28.1845 80.7005 23.2364 83.7048 19.702C87.5926 16.1676 97.701 11.2195 107.032 19.702C116.363 28.1845 123.997 23.2364 126.648 19.702C130.005 16.1676 138.841 11.2195 147.324 19.702C155.806 28.1845 164.642 23.2364 168 19.702" stroke="white" stroke-width="1.06032"/>
<path d="M1 33.4859C4.53439 29.7748 13.6178 24.5793 21.6762 33.4859C29.7346 42.3926 39.5249 37.1971 43.4127 33.4859C46.7704 29.9516 55.6064 25.0034 64.0889 33.4859C72.5714 41.9685 80.7005 37.0203 83.7048 33.4859C87.5926 29.9516 97.701 25.0034 107.032 33.4859C116.363 41.9685 123.997 37.0203 126.648 33.4859C130.005 29.9516 138.841 25.0034 147.324 33.4859C155.806 41.9685 164.642 37.0203 168 33.4859" stroke="white" stroke-width="1.06032"/>
<path d="M1 47.2701C4.53439 43.559 13.6178 38.3635 21.6762 47.2701C29.7346 56.1768 39.5249 50.9812 43.4127 47.2701C46.7704 43.7357 55.6064 38.7876 64.0889 47.2701C72.5714 55.7527 80.7005 50.8045 83.7048 47.2701C87.5926 43.7357 97.701 38.7876 107.032 47.2701C116.363 55.7527 123.997 50.8045 126.648 47.2701C130.005 43.7357 138.841 38.7876 147.324 47.2701C155.806 55.7527 164.642 50.8045 168 47.2701" stroke="white" stroke-width="1.06032"/>
</svg>
